<svg width="119" height="119" viewBox="0 0 119 119" fill="none" xmlns="http://www.w3.org/2000/svg">
<path d="M33.0597 37.8662C32.5298 43.5187 32.1579 53.5221 35.4955 57.7801C35.4955 57.7801 33.9243 46.7912 48.009 33.0039C53.6801 27.4537 54.991 19.9046 53.0108 14.2428C51.8858 11.0354 49.8312 8.38579 48.0462 6.53572C47.005 5.44798 47.8045 3.65369 49.3199 3.71876C58.4866 4.12783 73.343 6.67517 79.6556 22.517C82.4261 29.4711 82.6306 36.6576 81.3104 43.9649C80.4737 48.632 77.4987 59.0073 84.2854 60.2809C89.1291 61.192 91.4719 57.3431 92.5225 54.5727C92.9594 53.4198 94.4748 53.1316 95.2929 54.052C103.474 63.3582 104.171 74.3192 102.479 83.7555C99.2069 101.996 80.734 115.272 62.382 115.272C39.4559 115.272 21.2062 102.154 16.4741 78.4098C14.5682 68.8248 15.5351 49.8591 30.3171 36.4716C31.4141 35.4676 33.2084 36.3601 33.0597 37.8662Z" fill="url(#paint0_radial_7_370)"/>
<path d="M70.7586 71.9764C62.3077 61.0991 66.0915 48.6878 68.1647 43.7418C68.4436 43.0911 67.6999 42.4775 67.1142 42.8772C63.4791 45.3502 56.0323 51.17 52.5646 59.3606C47.8696 70.4332 48.2043 75.8532 50.9841 82.4726C52.6575 86.461 50.7145 87.307 49.7383 87.4557C48.79 87.6045 47.9161 86.9723 47.2189 86.3122C45.2129 84.3865 43.7835 81.9397 43.091 79.2466C42.9423 78.6702 42.1892 78.5121 41.8453 78.9863C39.2421 82.5842 37.8941 88.3575 37.829 92.4389C37.6245 105.055 48.0463 115.281 60.6528 115.281C76.5412 115.281 88.1158 97.7102 78.9863 83.0211C76.3367 78.7446 73.8451 75.9462 70.7586 71.9764Z" fill="url(#paint1_radial_7_370)"/>
<defs>
<radialGradient id="paint0_radial_7_370" cx="0" cy="0" r="1" gradientUnits="userSpaceOnUse" gradientTransform="translate(57.8412 115.561) rotate(-179.751) scale(65.6245 107.677)">
<stop offset="0.314" stop-color="#FF9800"/>
<stop offset="0.662" stop-color="#FF6D00"/>
<stop offset="0.972" stop-color="#F44336"/>
</radialGradient>
<radialGradient id="paint1_radial_7_370" cx="0" cy="0" r="1" gradientUnits="userSpaceOnUse" gradientTransform="translate(61.5267 50.2574) rotate(90.5787) scale(68.6634 51.6744)">
<stop offset="0.214" stop-color="#FFF176"/>
<stop offset="0.328" stop-color="#FFF27D"/>
<stop offset="0.487" stop-color="#FFF48F"/>
<stop offset="0.672" stop-color="#FFF7AD"/>
<stop offset="0.793" stop-color="#FFF9C4"/>
<stop offset="0.822" stop-color="#FFF8BD" stop-opacity="0.804"/>
<stop offset="0.863" stop-color="#FFF6AB" stop-opacity="0.529"/>
<stop offset="0.91" stop-color="#FFF38D" stop-opacity="0.209"/>
<stop offset="0.941" stop-color="#FFF176" stop-opacity="0"/>
</radialGradient>
</defs>
</svg>
