<svg width="20" height="20" viewBox="0 0 20 20" fill="none" xmlns="http://www.w3.org/2000/svg">
<g id="solar:pen-bold">
<path id="Vector" d="M9.49994 15.1342L15.6633 8.97084C14.6263 8.5379 13.6846 7.90535 12.8916 7.10917C12.095 6.31601 11.4622 5.37398 11.0291 4.33667L4.86577 10.5C4.38493 10.9808 4.1441 11.2217 3.93743 11.4867C3.69336 11.7994 3.48407 12.1378 3.31327 12.4958C3.1691 12.7992 3.0616 13.1225 2.8466 13.7675L1.7116 17.17C1.65936 17.3258 1.65161 17.4931 1.68922 17.653C1.72683 17.813 1.80831 17.9593 1.92449 18.0754C2.04068 18.1916 2.18697 18.2731 2.34692 18.3107C2.50688 18.3483 2.67415 18.3406 2.82993 18.2883L6.23244 17.1533C6.87827 16.9383 7.20077 16.8308 7.5041 16.6867C7.86244 16.5158 8.20077 16.3067 8.51327 16.0625C8.77827 15.8558 9.0191 15.615 9.49994 15.1342ZM17.3733 7.26084C17.9878 6.64631 18.333 5.81283 18.333 4.94375C18.333 4.07468 17.9878 3.2412 17.3733 2.62667C16.7587 2.01214 15.9253 1.6669 15.0562 1.6669C14.1871 1.6669 13.3536 2.01214 12.7391 2.62667L11.9999 3.36583L12.0316 3.45833C12.3959 4.5006 12.9919 5.44659 13.7749 6.225C14.5766 7.03142 15.5557 7.63926 16.6341 8L17.3733 7.26084Z" fill="#23CEFD"/>
</g>
</svg>
