<svg width="26" height="26" viewBox="0 0 26 26" fill="none" xmlns="http://www.w3.org/2000/svg">
<g id="formkit:group">
<path id="Vector" d="M12.9999 13.8125C12.8699 13.8125 12.7562 13.78 12.6424 13.7313L2.07992 8.45C1.94255 8.38347 1.8267 8.27959 1.74564 8.15026C1.66458 8.02094 1.62158 7.87139 1.62158 7.71875C1.62158 7.56612 1.66458 7.41657 1.74564 7.28724C1.8267 7.15792 1.94255 7.05404 2.07992 6.9875L12.6424 1.70625C12.8699 1.5925 13.1462 1.5925 13.3737 1.70625L23.9362 6.9875C24.0736 7.05404 24.1894 7.15792 24.2705 7.28724C24.3516 7.41657 24.3945 7.56612 24.3945 7.71875C24.3945 7.87139 24.3516 8.02094 24.2705 8.15026C24.1894 8.27959 24.0736 8.38347 23.9362 8.45L13.3737 13.7313C13.2599 13.7963 13.1299 13.8125 13.0162 13.8125H12.9999ZM4.25743 7.71875L12.9999 12.09L21.7425 7.71875L12.9999 3.3475L4.25743 7.71875Z" fill="#23CEFD"/>
<path id="Vector_2" d="M12.9999 19.0938C12.8699 19.0938 12.7562 19.0613 12.6424 19.0125L2.07992 13.7312C1.94255 13.6647 1.8267 13.5608 1.74564 13.4315C1.66458 13.3022 1.62158 13.1526 1.62158 13C1.62158 12.8474 1.66458 12.6978 1.74564 12.5685C1.8267 12.4392 1.94255 12.3353 2.07992 12.2687L7.36118 9.63624C7.76743 9.44124 8.25493 9.60374 8.44993 9.99375C8.64493 10.4 8.48243 10.8875 8.09243 11.0825L4.25742 13L12.9999 17.3713L21.7424 13L17.9074 11.0825C17.8108 11.0363 17.7246 10.971 17.6539 10.8906C17.5832 10.8101 17.5295 10.7162 17.4961 10.6145C17.4627 10.5127 17.4503 10.4053 17.4595 10.2986C17.4688 10.1919 17.4995 10.0882 17.5499 9.99375C17.7449 9.58749 18.2324 9.42499 18.6387 9.63624L23.9199 12.2687C24.0573 12.3353 24.1732 12.4392 24.2542 12.5685C24.3353 12.6978 24.3783 12.8474 24.3783 13C24.3783 13.1526 24.3353 13.3022 24.2542 13.4315C24.1732 13.5608 24.0573 13.6647 23.9199 13.7312L13.3574 19.0125C13.2437 19.0775 13.1137 19.0938 12.9999 19.0938Z" fill="#23CEFD"/>
<path id="Vector_3" d="M12.9999 24.375C12.8699 24.375 12.7562 24.3425 12.6424 24.2938L2.07992 19.0125C1.94255 18.946 1.8267 18.8421 1.74564 18.7128C1.66458 18.5834 1.62158 18.4339 1.62158 18.2812C1.62158 18.1286 1.66458 17.9791 1.74564 17.8497C1.8267 17.7204 1.94255 17.6165 2.07992 17.55L7.36118 14.9175C7.76743 14.7225 8.25493 14.885 8.44993 15.275C8.64493 15.6812 8.48243 16.1687 8.09243 16.3637L4.25742 18.2812L12.9999 22.6525L21.7424 18.2812L17.9074 16.3637C17.8108 16.3175 17.7246 16.2523 17.6539 16.1718C17.5832 16.0914 17.5295 15.9975 17.4961 15.8957C17.4627 15.794 17.4503 15.6865 17.4595 15.5799C17.4688 15.4732 17.4995 15.3695 17.5499 15.275C17.7449 14.8687 18.2324 14.7062 18.6387 14.9175L23.9199 17.55C24.0573 17.6165 24.1732 17.7204 24.2542 17.8497C24.3353 17.9791 24.3783 18.1286 24.3783 18.2812C24.3783 18.4339 24.3353 18.5834 24.2542 18.7128C24.1732 18.8421 24.0573 18.946 23.9199 19.0125L13.3574 24.2938C13.2437 24.3588 13.1137 24.375 12.9999 24.375Z" fill="#23CEFD"/>
</g>
</svg>
