<svg width="25" height="25" viewBox="0 0 25 25" fill="none" xmlns="http://www.w3.org/2000/svg">
<g id="fluent:settings-32-regular">
<path id="Vector" d="M12.5001 8.59375C11.4641 8.59375 10.4705 9.0053 9.73792 9.73786C9.00535 10.4704 8.5938 11.464 8.5938 12.5C8.5938 13.536 9.00535 14.5296 9.73792 15.2621C10.4705 15.9947 11.4641 16.4062 12.5001 16.4062C13.5361 16.4062 14.5296 15.9947 15.2622 15.2621C15.9948 14.5296 16.4063 13.536 16.4063 12.5C16.4063 11.464 15.9948 10.4704 15.2622 9.73786C14.5296 9.0053 13.5361 8.59375 12.5001 8.59375ZM10.1563 12.5C10.1563 11.8784 10.4032 11.2823 10.8428 10.8427C11.2823 10.4032 11.8785 10.1562 12.5001 10.1562C13.1217 10.1562 13.7178 10.4032 14.1573 10.8427C14.5969 11.2823 14.8438 11.8784 14.8438 12.5C14.8438 13.1216 14.5969 13.7177 14.1573 14.1573C13.7178 14.5968 13.1217 14.8437 12.5001 14.8437C11.8785 14.8437 11.2823 14.5968 10.8428 14.1573C10.4032 13.7177 10.1563 13.1216 10.1563 12.5ZM10.0313 23.1469C10.8399 23.3398 11.6688 23.4375 12.5001 23.4375C13.3305 23.4362 14.158 23.3379 14.9657 23.1445C15.1977 23.0898 15.4072 22.9647 15.5653 22.7862C15.7233 22.6077 15.8223 22.3846 15.8485 22.1477L16.0313 20.4836C16.0489 20.3021 16.1095 20.1273 16.2081 19.9739C16.3066 19.8204 16.4402 19.6926 16.5979 19.601C16.7556 19.5093 16.9329 19.4566 17.115 19.4471C17.2972 19.4375 17.4789 19.4715 17.6454 19.5461L19.1727 20.2148C19.3914 20.3111 19.6345 20.3368 19.8685 20.2885C20.1024 20.2402 20.3155 20.1203 20.4782 19.9453C21.6067 18.7294 22.4491 17.2765 22.9438 15.693C23.0147 15.4639 23.0126 15.2185 22.9377 14.9907C22.8628 14.7629 22.7189 14.5641 22.5258 14.4219L21.1751 13.4258C21.0275 13.3183 20.9075 13.1774 20.8249 13.0146C20.7422 12.8518 20.6992 12.6718 20.6994 12.4892C20.6997 12.3067 20.7431 12.1268 20.8262 11.9642C20.9092 11.8016 21.0296 11.661 21.1774 11.5539L22.5211 10.5617C22.7153 10.4198 22.8601 10.2207 22.9354 9.99235C23.0106 9.76397 23.0125 9.51777 22.9407 9.28828C22.4469 7.70421 21.6041 6.25109 20.4743 5.03593C20.3109 4.86128 20.0974 4.74157 19.8632 4.6933C19.629 4.64503 19.3856 4.67057 19.1665 4.7664L17.6461 5.43515C17.4795 5.50779 17.2981 5.5402 17.1166 5.52976C16.9352 5.51932 16.7587 5.46633 16.6015 5.37506C16.4443 5.28379 16.3107 5.15681 16.2117 5.00439C16.1126 4.85197 16.0508 4.67838 16.0313 4.49765L15.8469 2.8414C15.8211 2.6016 15.7208 2.37592 15.5601 2.19612C15.3993 2.01631 15.1863 1.89144 14.9508 1.83906C14.1486 1.6598 13.3298 1.56475 12.5079 1.55547C11.681 1.56526 10.8574 1.66029 10.0501 1.83906C9.81461 1.89054 9.60134 2.01484 9.4405 2.19433C9.27966 2.37382 9.17941 2.59939 9.15396 2.83906L8.9688 4.49687C8.94858 4.67787 8.88625 4.85162 8.78681 5.0042C8.68737 5.15678 8.55358 5.28396 8.39615 5.37554C8.23873 5.46712 8.06205 5.52057 7.88025 5.5316C7.69846 5.54263 7.51661 5.51094 7.34927 5.43906L5.82896 4.76953C5.6096 4.67636 5.36697 4.65262 5.13371 4.7015C4.90045 4.75039 4.68776 4.86956 4.52427 5.04297C3.3943 6.2593 2.55078 7.71303 2.05552 9.29765C1.98503 9.52656 1.98747 9.77172 2.0625 9.99918C2.13753 10.2266 2.28143 10.4251 2.47427 10.5672L3.82193 11.5609C3.96873 11.669 4.08808 11.81 4.17034 11.9726C4.25259 12.1353 4.29545 12.315 4.29545 12.4973C4.29545 12.6795 4.25259 12.8592 4.17034 13.0219C4.08808 13.1845 3.96873 13.3256 3.82193 13.4336L2.47427 14.4297C2.2807 14.572 2.13638 14.7712 2.06145 14.9995C1.98652 15.2278 1.98472 15.4738 2.0563 15.7031C2.55133 17.2888 3.39485 18.7436 4.52505 19.9609C4.6325 20.0765 4.76277 20.1684 4.90761 20.2309C5.05245 20.2935 5.2087 20.3252 5.36646 20.3242C5.52505 20.3242 5.68209 20.2914 5.82818 20.2281L7.35552 19.557C7.52211 19.4851 7.70326 19.4532 7.88442 19.4639C8.06557 19.4747 8.24168 19.5278 8.39858 19.6189C8.55549 19.7101 8.68881 19.8368 8.78785 19.9889C8.88688 20.141 8.94886 20.3142 8.9688 20.4945L9.1524 22.1555C9.17906 22.3912 9.27776 22.6129 9.43505 22.7905C9.59233 22.968 9.80054 23.092 10.0313 23.1469ZM14.329 21.6891C13.1235 21.9363 11.8805 21.9363 10.6751 21.6891L10.5227 20.3297C10.4482 19.6647 10.1311 19.0505 9.63209 18.6047C9.24137 18.2606 8.76134 18.0341 8.24739 17.9511C7.73343 17.8682 7.20651 17.9323 6.7274 18.1359L5.47271 18.6828C4.66333 17.756 4.04048 16.6817 3.63834 15.5187L4.75084 14.6969C5.09454 14.4436 5.37393 14.1131 5.56647 13.7321C5.75902 13.351 5.85933 12.9301 5.85933 12.5031C5.85933 12.0762 5.75902 11.6552 5.56647 11.2742C5.37393 10.8931 5.09454 10.5626 4.75084 10.3094L3.64068 9.48984C4.04329 8.32809 4.66611 7.25485 5.47505 6.3289L6.72505 6.87578C7.06959 7.02792 7.44218 7.10616 7.8188 7.10547C8.4895 7.10336 9.13603 6.85483 9.63543 6.40714C10.1348 5.95944 10.4523 5.34382 10.5274 4.67734L10.679 3.3125C11.2836 3.19531 11.8977 3.13281 12.5126 3.125C13.1235 3.13281 13.7329 3.19531 14.3329 3.3125L14.4782 4.67187C14.5505 5.33878 14.8669 5.95539 15.3665 6.40312C15.7574 6.74927 16.2387 6.97712 16.7543 7.06012C17.2698 7.14311 17.7983 7.07783 18.2782 6.87187L19.5282 6.325C20.3383 7.25069 20.9617 8.32431 21.3641 9.48672L20.2524 10.3039C19.9069 10.5563 19.6259 10.8866 19.4322 11.2681C19.2384 11.6496 19.1375 12.0714 19.1375 12.4992C19.1375 12.9271 19.2384 13.3489 19.4322 13.7303C19.6259 14.1118 19.9069 14.4421 20.2524 14.6945L21.3633 15.5148C20.9605 16.6751 20.3386 17.7471 19.5313 18.6727L18.2813 18.1258C17.8901 17.9517 17.4633 17.8727 17.0358 17.8951C16.6082 17.9176 16.1921 18.0409 15.8213 18.255C15.4505 18.4691 15.1357 18.768 14.9025 19.127C14.6694 19.4861 14.5245 19.8953 14.4797 20.3211L14.329 21.6891Z" fill="#23CEFD"/>
</g>
</svg>
