<svg width="125" height="36" viewBox="0 0 125 36" fill="none" xmlns="http://www.w3.org/2000/svg">
    <g filter="url(#filter0_bd_7_368)">
        <path
            d="M4.008 26.964C4.008 26.8893 4.02667 26.796 4.064 26.684L5.968 21.644H4.82C4.316 21.644 4.064 21.2893 4.064 20.58C4.064 20.3 4.12933 20.0667 4.26 19.88C4.39067 19.6747 4.57733 19.572 4.82 19.572H6.752L10.644 9.38C10.7933 9.08133 10.9987 8.848 11.26 8.68C11.5213 8.49333 11.7547 8.4 11.96 8.4C12.1653 8.4 12.3987 8.49333 12.66 8.68C12.9213 8.86667 13.1173 9.1 13.248 9.38L17.14 19.572H18.96C19.2027 19.572 19.3893 19.6747 19.52 19.88C19.6693 20.0853 19.744 20.328 19.744 20.608C19.744 21.2987 19.4827 21.644 18.96 21.644H17.952L19.884 26.684C19.9213 26.796 19.94 26.8893 19.94 26.964C19.94 27.244 19.8 27.4867 19.52 27.692C19.24 27.8973 18.96 28 18.68 28C18.3813 28 18.1573 27.86 18.008 27.58L15.74 21.644H8.208L5.94 27.58C5.79067 27.86 5.56667 28 5.268 28C4.988 28 4.708 27.8973 4.428 27.692C4.148 27.4867 4.008 27.244 4.008 26.964ZM8.992 19.572H14.928L11.96 11.76L8.992 19.572ZM22.9268 27.244V9.184C22.9268 8.66133 23.2721 8.4 23.9628 8.4C24.6161 8.4 24.9428 8.80133 24.9428 9.604C26.8655 8.78267 28.7228 8.372 30.5148 8.372C33.0535 8.372 34.9201 8.97867 36.1148 10.192C37.3095 11.4053 37.9068 12.936 37.9068 14.784C37.9068 17.3973 36.5535 19.1333 33.8468 19.992L38.5228 26.74C38.6348 26.9453 38.6908 27.1227 38.6908 27.272C38.6908 27.496 38.5975 27.6733 38.4108 27.804C38.2428 27.9347 38.0188 28 37.7388 28C37.1601 28 36.7028 27.7667 36.3668 27.3L31.7188 20.468C30.7855 20.5987 29.6748 20.664 28.3868 20.664C28.0135 20.664 27.4441 20.636 26.6788 20.58C25.9321 20.524 25.3721 20.496 24.9988 20.496V27.244C24.9988 27.4867 24.8961 27.6733 24.6908 27.804C24.5041 27.9347 24.2708 28 23.9908 28C23.2815 28 22.9268 27.748 22.9268 27.244ZM24.9988 18.088C25.7641 18.3307 27.3041 18.452 29.6188 18.452C31.4855 18.452 32.9881 18.1253 34.1268 17.472C35.2655 16.8 35.8348 15.8013 35.8348 14.476C35.8348 13.3373 35.3775 12.3853 34.4628 11.62C33.5481 10.836 32.1388 10.444 30.2348 10.444C28.5921 10.444 26.8468 10.9387 24.9988 11.928V18.088ZM41.876 26.572V9.8C41.876 8.88533 42.1187 8.428 42.604 8.428H56.996C57.2387 8.428 57.4254 8.53067 57.556 8.736C57.7054 8.94133 57.78 9.184 57.78 9.464C57.78 10.1547 57.5187 10.5 56.996 10.5H43.948V15.988H54.476C54.7187 15.988 54.9054 16.0907 55.036 16.296C55.1854 16.5013 55.26 16.744 55.26 17.024C55.26 17.7147 54.9987 18.06 54.476 18.06H43.948V25.928H56.996C57.2387 25.928 57.4254 26.0307 57.556 26.236C57.7054 26.4413 57.78 26.684 57.78 26.964C57.78 27.6547 57.5187 28 56.996 28H42.604C42.2867 28 42.0814 27.888 41.988 27.664C41.9134 27.44 41.876 27.076 41.876 26.572ZM60.6885 27.216V9.156C60.6885 8.652 60.9685 8.4 61.5285 8.4C61.9392 8.4 62.3405 8.57733 62.7325 8.932L74.6325 19.404V9.156C74.6325 8.652 74.9872 8.4 75.6965 8.4C75.9765 8.4 76.2099 8.46533 76.3965 8.596C76.6019 8.72667 76.7045 8.91333 76.7045 9.156V27.216C76.7045 27.4587 76.6019 27.6547 76.3965 27.804C76.1912 27.9347 75.9485 28 75.6685 28C74.9779 28 74.6325 27.7387 74.6325 27.216V22.12L62.7605 11.676V27.216C62.7605 27.4587 62.6579 27.6547 62.4525 27.804C62.2472 27.9347 62.0045 28 61.7245 28C61.0339 28 60.6885 27.7387 60.6885 27.216ZM79.7502 26.964C79.7502 26.8893 79.7689 26.796 79.8062 26.684L81.7102 21.644H80.5622C80.0582 21.644 79.8062 21.2893 79.8062 20.58C79.8062 20.3 79.8715 20.0667 80.0022 19.88C80.1329 19.6747 80.3195 19.572 80.5622 19.572H82.4942L86.3862 9.38C86.5355 9.08133 86.7409 8.848 87.0022 8.68C87.2635 8.49333 87.4969 8.4 87.7022 8.4C87.9075 8.4 88.1409 8.49333 88.4022 8.68C88.6635 8.86667 88.8595 9.1 88.9902 9.38L92.8822 19.572H94.7022C94.9449 19.572 95.1315 19.6747 95.2622 19.88C95.4115 20.0853 95.4862 20.328 95.4862 20.608C95.4862 21.2987 95.2249 21.644 94.7022 21.644H93.6942L95.6262 26.684C95.6635 26.796 95.6822 26.8893 95.6822 26.964C95.6822 27.244 95.5422 27.4867 95.2622 27.692C94.9822 27.8973 94.7022 28 94.4222 28C94.1235 28 93.8995 27.86 93.7502 27.58L91.4822 21.644H83.9502L81.6822 27.58C81.5329 27.86 81.3089 28 81.0102 28C80.7302 28 80.4502 27.8973 80.1702 27.692C79.8902 27.4867 79.7502 27.244 79.7502 26.964ZM84.7342 19.572H90.6702L87.7022 11.76L84.7342 19.572ZM97.6 26.518C97.6 26.336 97.678 26.167 97.834 26.011L107.272 14.428L97.756 2.767C97.652 2.689 97.6 2.52 97.6 2.26C97.6 1.844 97.808 1.48 98.224 1.168C98.64 0.855998 99.043 0.699998 99.433 0.699998C99.615 0.699998 99.888 0.855998 100.252 1.168L109.144 12.127L118.075 1.168C118.439 0.855998 118.712 0.699998 118.894 0.699998C119.284 0.699998 119.687 0.855998 120.103 1.168C120.519 1.48 120.727 1.844 120.727 2.26C120.727 2.52 120.675 2.689 120.571 2.767L111.055 14.428L120.493 26.011C120.649 26.167 120.727 26.336 120.727 26.518C120.727 26.856 120.519 27.194 120.103 27.532C119.687 27.844 119.31 28 118.972 28C118.634 28 118.309 27.857 117.997 27.571L109.144 16.768L100.33 27.571C100.018 27.857 99.693 28 99.355 28C99.017 28 98.64 27.844 98.224 27.532C97.808 27.194 97.6 26.856 97.6 26.518Z"
            fill="white" />
    </g>
    <defs>
        <filter id="filter0_bd_7_368" x="0.00799561" y="-3.30005" width="124.719" height="39.3"
            filterUnits="userSpaceOnUse" color-interpolation-filters="sRGB">
            <feFlood flood-opacity="0" result="BackgroundImageFix" />
            <feGaussianBlur in="BackgroundImageFix" stdDeviation="2" />
            <feComposite in2="SourceAlpha" operator="in" result="effect1_backgroundBlur_7_368" />
            <feColorMatrix in="SourceAlpha" type="matrix" values="0 0 0 0 0 0 0 0 0 0 0 0 0 0 0 0 0 0 127 0"
                result="hardAlpha" />
            <feOffset dy="4" />
            <feGaussianBlur stdDeviation="2" />
            <feComposite in2="hardAlpha" operator="out" />
            <feColorMatrix type="matrix" values="0 0 0 0 0.650308 0 0 0 0 0.266667 0 0 0 0 1 0 0 0 1 0" />
            <feBlend mode="normal" in2="effect1_backgroundBlur_7_368" result="effect2_dropShadow_7_368" />
            <feBlend mode="normal" in="SourceGraphic" in2="effect2_dropShadow_7_368" result="shape" />
        </filter>
    </defs>
</svg>